HIERARCHY
ROOT hip
{
	OFFSET 0.000000 0.000000 0.000000 
	CHANNELS 6 Xposition Yposition Zposition Xrotation Zrotation Yrotation
	JOINT abdomen
	{
		OFFSET 0.000000 3.402643 0.000000 
		CHANNELS 3 Xrotation Zrotation Yrotation
		JOINT chest
		{
			OFFSET 0.000000 8.438565 -0.680529 
			CHANNELS 3 Xrotation Zrotation Yrotation
			JOINT neck
			{
				OFFSET 0.000000 10.207942 -0.272212 
				CHANNELS 3 Xrotation Zrotation Yrotation
				JOINT head
				{
					OFFSET 0.000000 3.130431 0.000000 
					CHANNELS 3 Xrotation Zrotation Yrotation
					End Site
					{
						OFFSET 0.000000 3.130435 0.000000 
					}
				}
			}
			JOINT lCollar
			{
				OFFSET 3.470700 6.669187 -0.816635 
				CHANNELS 3 Yrotation Zrotation Xrotation
				JOINT lShldr
				{
					OFFSET 3.198488 0.000000 0.000000 
					CHANNELS 3 Zrotation Yrotation Xrotation
					JOINT lForeArm
					{
						OFFSET 10.139888 0.000000 0.000000 
						CHANNELS 3 Yrotation Zrotation Xrotation
						JOINT lHand
						{
							OFFSET 8.370511 0.000000 0.000000 
							CHANNELS 3 Zrotation Yrotation Xrotation
							End Site
							{
								OFFSET 4.083176 0.000000 0.000000 
							}
						}
					}
				}
			}
			JOINT rCollar
			{
				OFFSET -3.470700 6.669187 -0.816635 
				CHANNELS 3 Yrotation Zrotation Xrotation
				JOINT rShldr
				{
					OFFSET -3.198488 0.000000 0.000000 
					CHANNELS 3 Zrotation Yrotation Xrotation
					JOINT rForeArm
					{
						OFFSET -10.139888 0.000000 0.000000 
						CHANNELS 3 Yrotation Zrotation Xrotation
						JOINT rHand
						{
							OFFSET -8.370511 0.000000 0.000000 
							CHANNELS 3 Zrotation Yrotation Xrotation
							End Site
							{
								OFFSET -4.083176 0.000000 0.000000 
							}
						}
					}
				}
			}
		}
	}
	JOINT lThigh
	{
		OFFSET 5.308129 -1.633274 1.361059 
		CHANNELS 3 Xrotation Zrotation Yrotation
		JOINT lShin
		{
			OFFSET -2.041588 -20.007561 0.000000 
			CHANNELS 3 Xrotation Zrotation Yrotation
			JOINT lFoot
			{
				OFFSET 0.000000 -19.190928 -1.224953 
				CHANNELS 3 Xrotation Yrotation Zrotation
				End Site
				{
					OFFSET 0.000000 -2.449906 4.627600 
				}
			}
		}
	}
	JOINT rThigh
	{
		OFFSET -5.308129 -1.633274 1.361059 
		CHANNELS 3 Xrotation Zrotation Yrotation
		JOINT rShin
		{
			OFFSET 2.041588 -20.007561 0.000000 
			CHANNELS 3 Xrotation Zrotation Yrotation
			JOINT rFoot
			{
				OFFSET 0.000000 -19.190928 -1.224953 
				CHANNELS 3 Xrotation Yrotation Zrotation
				End Site
				{
					OFFSET 0.000000 -2.449906 4.627600 
				}
			}
		}
	}
}
MOTION
Frames: 6
Frame Time: 0.016667
3.808094 54.009705 -59.931934 -9.471559 -1.848973 4.797146 31.081558 2.553513 0.231403 5.362226 1.181299 -1.933704 -3.306264 4.765447 -0.424891 1.587519 -6.087190 7.728940 -18.853357 -11.959005 -0.623500 -58.519245 13.174936 -25.126431 -27.413441 -5.000000 19.577353 -17.530937 3.030332 5.596750 18.603495 15.125246 -0.807589 58.488590 -1.550808 -12.745411 35.475594 5.000000 5.993557 11.057778 -24.306206 2.188975 7.350688 8.990722 -1.006287 10.922853 -5.751901 -1.318494 -9.005885 5.692139 2.377080 4.635574 -8.902596 -12.572337 35.602478 5.104335 3.964123 -12.429060 -14.701240 9.242620 
3.681209 54.008976 -60.397549 -9.592774 -1.770203 5.139088 30.869135 2.742137 0.102055 5.356381 1.113012 -1.787251 -3.139129 4.610959 -0.401530 1.840253 -6.090919 7.463672 -18.777081 -11.946110 -0.632043 -58.631512 13.620580 -25.563986 -27.329842 -5.000000 19.217358 -17.505219 3.102458 5.092850 18.787758 15.037451 -0.803044 58.589855 -1.423600 -12.455015 35.522102 5.000000 5.537217 10.809059 -24.302881 2.273818 6.776513 9.100442 -1.660261 10.846459 -5.791714 -1.324333 -8.412792 5.858771 2.204468 6.721851 -8.694880 -11.782787 35.318039 5.368065 4.133449 -12.490966 -14.706738 9.121993 
3.543979 53.999649 -60.858826 -9.689086 -1.613394 5.588115 30.585857 2.896599 -0.075041 5.348183 1.083742 -1.738434 -2.844105 4.419311 -0.362698 2.155413 -6.114683 7.140147 -18.767429 -11.955864 -0.632546 -58.776012 14.087920 -26.012917 -27.278564 -5.000000 18.864416 -17.376694 3.206946 4.397484 19.069120 14.910632 -0.796473 58.739178 -1.349326 -12.208326 35.579533 5.000000 5.144106 10.671665 -24.405018 2.361080 6.140293 9.146855 -2.460920 10.798662 -5.819169 -1.322064 -7.794018 6.042252 1.951853 8.954576 -8.496328 -10.727339 34.463150 5.776788 4.367528 -12.336314 -14.747495 9.084977 
3.392107 53.974804 -61.331039 -9.792717 -1.456723 6.036922 30.301908 3.039497 -0.257047 5.330170 1.054471 -1.699381 -2.558957 4.218005 -0.322395 2.461052 -6.138278 6.815578 -18.746044 -11.968759 -0.624003 -58.922710 14.554276 -26.463491 -27.229624 -5.000000 18.520199 -17.252342 3.317836 3.712046 19.338165 14.777302 -0.780485 58.890430 -1.281384 -11.969854 35.622929 5.000000 4.769207 10.529514 -24.508682 2.457442 5.497125 9.207083 -3.240829 10.770926 -5.849320 -1.341191 -7.194283 6.209243 1.712393 11.193438 -8.335149 -9.688963 33.592873 6.173686 4.560021 -12.164227 -14.759105 9.053988 
3.220564 53.928596 -61.821251 -9.764770 -1.018771 6.514548 30.025461 2.930516 -0.572149 5.332565 0.986145 -1.582036 -2.362775 4.190499 -0.307669 2.675676 -6.275923 6.671009 -18.724886 -11.822477 -0.616458 -59.123840 14.881430 -26.786623 -27.324337 -5.000000 18.290850 -16.972424 3.359621 2.995052 19.446352 14.657027 -0.783331 59.044853 -1.036338 -11.573969 35.679840 4.871415 4.559717 10.470421 -24.484974 2.385625 4.654816 8.957907 -4.053293 10.811572 -5.857475 -1.326797 -6.368703 6.342239 1.241411 13.375476 -8.162469 -8.339360 31.809566 6.422597 4.402516 -12.536505 -14.516368 8.679176 
3.033847 53.864510 -62.329884 -9.738012 -0.571899 6.982754 29.770086 2.823519 -0.896401 5.334485 0.927577 -1.474629 -2.167308 4.161532 -0.303291 2.892117 -6.403906 6.524343 -18.703642 -11.666445 -0.608405 -59.328224 15.212066 -27.119991 -27.428329 -5.000000 18.062052 -16.697050 3.396812 2.271639 19.551991 14.530239 -0.776758 59.211052 -0.791856 -11.176793 35.745327 4.732660 4.357851 10.417651 -24.463659 2.322492 3.806319 8.733394 -4.839611 10.867008 -5.878014 -1.342400 -5.536294 6.410435 0.740955 15.574759 -8.075983 -7.007668 30.039757 6.695689 4.245207 -12.930485 -14.229733 8.301799 
